<svg xmlns="http://www.w3.org/2000/svg" viewBox="0 0 810.74 864.65"><defs><style>.cls-1{fill:#fff;}</style></defs><g id="Layer_2" data-name="Layer 2"><g id="Layer_1-2" data-name="Layer 1"><path class="cls-1" d="M42.47,827.78H696.1c-2.38-8.53-4.32-16.69-6.93-24.62-8.68-26.46-26.45-45.73-48.91-61.28-23.54-16.3-49.63-27.61-75.78-38.78-26-11.1-52.33-21.42-76.23-36.79-19.41-12.48-35.66-27.86-44.28-49.92a19,19,0,0,1-1.38-6.71q-.15-41,0-82c0-1.56.65-3.76,1.78-4.59,18.09-13.19,26.48-32.36,32.75-52.81a78.14,78.14,0,0,0,2.25-12.7c1.3-10,9.29-16.38,20.17-15.87a17.25,17.25,0,0,1,16.75,17.65c-.27,22.79-9.44,42.58-21.65,61.14-3.54,5.38-8.39,9.89-12.29,15.07a12.83,12.83,0,0,0-2.7,7c-.28,17.32.23,34.67-.46,52-.4,10.1,3.79,17.56,10.07,24.53a103.11,103.11,0,0,0,32.85,24.05c21.61,10.21,43.49,19.88,65.38,29.5,31.12,13.67,61.91,27.87,88.36,49.81,36.13,30,56.2,68.39,60.53,115.06.77,8.28,1.23,16.59,1.83,24.89,0,.64,0,1.29,0,2.28H0c.46-8.58.62-17.16,1.44-25.67,2.34-24.42,8.76-47.66,20.8-69.19,15.78-28.22,38.81-49.16,66-65.95,27-16.67,56.28-28.51,85.28-41,20-8.61,40.22-16.78,58.31-29.18,9.83-6.73,18.66-14.56,24.52-25.15a16.46,16.46,0,0,0,2.06-7.48q.26-28.74,0-57.49a9.81,9.81,0,0,0-2.23-6.19c-17.62-18.41-26.42-40.8-29.94-65.6-.8-5.6-1.18-11.25-2.06-16.84-.2-1.27-1.46-3.08-2.58-3.39-18.63-5.2-26.75-19.79-32.31-36.38-4.95-14.79-6.49-30.18-1.85-45.17,2.49-8,7.57-15.35,12.08-22.62,1.6-2.57,2.49-4.45,1.89-7.53-3.68-18.9-7.89-37.75-10.45-56.82-4.81-35.68-5.46-71.45,4.66-106.48,14.49-50.09,47.9-81.3,97.61-95.53,18.34-5.25,37.15-7.33,56.21-7.28,11.74,0,19.59,7.1,19.82,17.85.25,11.26-7.54,19.15-19.56,19.2-17.71.08-35.2,1.64-52.29,6.56-34,9.77-54.72,32.7-65.05,65.77-6.58,21-8.11,42.71-7.5,64.61,1.06,37.61,8.57,74.17,18.28,110.4-6.68,5.82-16.86,7.65-19.55,17.63a50.31,50.31,0,0,0,.1,26.18c4.71,17.87,17.39,24.17,35.52,22.3,0,9.51-.7,18.32.13,27,2.35,24.48,10.51,46.91,25.61,66.58,1,1.31,2.06,2.85,3.46,3.54,6.05,3,7.28,7.76,7.19,14.21-.32,23.64-.22,47.3.11,71,.14,10.6-5.19,18.76-10.66,26.86-12.94,19.18-31.21,32.38-51.51,42.34-24.6,12.06-49.86,22.78-74.94,33.86-27.46,12.14-54.25,25.31-77.19,45.18C59.13,774,47.86,799.11,42.47,827.78Z"/><path class="cls-1" d="M483.36,312.93c-13.72,0-26.54-.15-39.36,0a55.46,55.46,0,0,1-56.59-55.52q-.12-100.75,0-201.5A55.54,55.54,0,0,1,443.29.06q156-.12,312,0a54.81,54.81,0,0,1,55.09,52.76c.64,18.31.26,36.66.27,55,0,49-.12,98,.06,147,.08,23.73-10,41.25-30.87,52.36a50.25,50.25,0,0,1-24,5.76c-49.82-.09-99.65,0-149.47-.19-4.73,0-6.38,1.72-8.21,5.68-13.2,28.66-30.67,54.15-56.82,72.65-12.5,8.84-26.6,13.13-42,14a18.82,18.82,0,0,1-18-26.78C490.58,357,488.32,335.13,483.36,312.93Zm40.83,44.28c3.29-2.87,5.59-4.73,7.73-6.76,17.71-16.82,29.66-37.53,39.33-59.58,4.54-10.38,11.47-15,22.69-14.93,53.14.19,106.29,0,159.44.14,6.54,0,12.84-1.07,16.26-6.75a29.59,29.59,0,0,0,4.13-14.45C774,189.57,774,124.26,774,59c0-1.17,0-2.34,0-3.5C773.16,44,766.08,37,754.53,37c-28.48-.11-57-.05-85.45-.06l-134.94,0c-30.32,0-60.64-.07-91,0-11.11,0-18.86,7.91-18.87,18.94q0,100.44,0,200.9c0,11.82,7.46,19.23,19.34,19.26,17.16,0,34.32,0,51.48,0,11.73,0,17.73,4.53,21.14,15.8.77,2.54,1.47,5.11,2.11,7.68A194,194,0,0,1,524.19,357.21Z"/><path class="cls-1" d="M498.25,128.64V92.33h128v36.31Z"/><path class="cls-1" d="M718.38,184.35v36.31H590.24V184.35Z"/><path class="cls-1" d="M663.69,92.31h54.66v36.32H663.69Z"/><path class="cls-1" d="M498.29,184.26h54.56v36.41H498.29Z"/></g></g></svg>