<svg xmlns="http://www.w3.org/2000/svg" viewBox="0 0 888.82 784.49"><defs><style>.cls-1{fill:#fff;}</style></defs><g id="Layer_2" data-name="Layer 2"><g id="Layer_1-2" data-name="Layer 1"><path class="cls-1" d="M445.4.4C584.33.42,723.25.8,862.17,0c20.15-.11,26.72,4.75,26.65,26q-1.16,366.71-.08,733.43c.06,20.09-6.26,25.07-25.52,25q-418.8-.79-837.62,0c-19.15,0-25.62-4.8-25.57-25Q1,391.76,0,24C0,4.45,6.49,0,24.55.07,164.83.63,305.12.38,445.4.4ZM609.81,139.7h-26c-42.22,0-84.46-.47-126.66.37-16.92.33-23-5.86-22.51-22.67.91-32.45.27-64.95.27-97.7h-111c0,51.39-.73,101.62.38,151.81.4,18-5.08,23.31-23.08,23.13-87.16-.85-174.34-.4-261.51-.34-6.59,0-13.17.61-20.47,1V357.36H50.39c53.8,0,107.6-.35,161.4.38,5.55.07,11,6.37,16.54,9.77-5.43,2.74-10.68,7.26-16.34,7.83-12,1.22-24.16.37-37.06.37v133c20.62-1.12,26.44,8.42,25.94,27.55-.9,34.45,6.87,67.58,24.33,97.79,23.39,40.5,59.5,58.93,107.39,61.69,0-8.38,0-15.08,0-21.77,0-46.31.68-92.64-.3-138.93-.43-19.92,7.47-26.89,26.6-25.92,19.7,1,39.49.22,59.25.22,36.15,0,36.11,0,36.09,35.26q0,99.09,0,198.18V764.7H635c0-63.2.58-125.08-.35-186.94-.29-19,6.17-24.82,24.86-24.43,51.06,1.06,102.15.36,153.23.36h56.65V402.9H454.2c0,12.54,1.13,24.12-.41,35.32-.94,6.85-6,13.13-9.17,19.67-3.07-6.62-8.7-13.2-8.8-19.87-.8-49.71.08-99.44-.92-149.14-.29-14.52,5.62-17.07,18-17.43,16.25-.49,32.72-1.49,48.62-4.65C569.67,253.25,611.84,204.15,609.81,139.7ZM454.91,381.37H869.35V20h-414V120.72h21c44.91,0,89.83.57,134.73-.21,15.37-.26,19.93,5.16,19.68,20.15-1.06,65.06-40.23,118.9-104,138.32-23.09,7-47.44,9.94-71.87,14.86ZM19.15,764.9H433.31V530.47H351.9c0,55.94-.26,110.35.18,164.75.11,13.73-4.07,19.72-18.8,19.12-60.59-2.46-106.89-28.61-130.51-85C189.89,598.61,185,564.51,176,530.23H19.15ZM303.62,138.27H282.23c-25.87,0-51.75.45-77.59-.49-5.2-.19-10.21-5.77-15.31-8.87,5.3-2.9,10.32-6.8,16-8.4,5-1.43,10.81-.31,16.25-.31h82v-25H265.86c-21.11,0-42.24.52-63.3-.53-4.58-.23-8.88-6.15-13.3-9.45,4.53-3.08,8.69-7.36,13.69-8.9s10.79-.26,16.24-.25h84.7V20.19H19.77V174.61H303.62ZM19.29,508.55H154.35V378.21H19.29ZM667.42,764.27H861.28l-97-82.16Zm96.66-106.78,96.34-82.06H667.48ZM749.64,670l-93.33-79.48v159Zm119.21,77.15V593.3l-90.28,76.53Z"/><path class="cls-1" d="M109.42,149.5c-14.15-4.88-31.57-6.19-41.73-15.45C51,118.78,55.56,95.86,61.3,76.49,66.7,58.25,83.32,54.09,101,55a92.73,92.73,0,0,0,12.25-.1c50.21-4.15,55.85,30.41,47.58,67C156.53,141,145,145.44,109.42,149.5Zm1.68-17.89c10.77-4.86,26.91-6.87,31.27-15.11,13-24.55-.45-42.48-28.52-42.6-4.72,0-9.47.35-14.16,0-16.27-1.16-23.07,6.18-23.4,22.54C75.73,123.81,79.41,127.86,111.1,131.61Z"/></g></g></svg>