<svg xmlns="http://www.w3.org/2000/svg" viewBox="0 0 862.1 861.48"><defs><style>.cls-1{fill:#fff;}</style></defs><g id="Layer_2" data-name="Layer 2"><g id="Layer_1-2" data-name="Layer 1"><path class="cls-1" d="M779.16,472.74c18.1,0,35.45-.07,52.8,0,18.88.09,30,11.4,30.13,30.44,0,6.08,0,12.16,0,18.24,0,22.11-6,30-27.8,35.74v304.3H28.07V445.87C6.54,440.56.05,432.28,0,411c0-6.95-.1-13.91,0-20.86.31-16.74,11.78-28.36,28.51-28.54,17.92-.2,35.83-.05,54.32-.05V84.27C61.65,78.66,55.65,70.83,55.66,48.71c0-5.51,0-11,0-16.51C55.68,10.79,66.31,0,87.52,0H773c23.18,0,33.46,10.21,33.46,33.22q0,9.14,0,18.25c0,19.19-7.72,28.45-27.31,32.42ZM473.4,556.51V833.83h82.86V668H723.43V833.8H806V556.51ZM362,804.37c2.64-3.27,4.46-5.35,6.09-7.56,21.06-28.7,41.43-57.94,63.43-85.9,10.31-13.11,14.23-26.3,13.79-42.74-1-37-.31-74.06-.31-110.95-22.16-6.05-27.81-13.59-27.81-36.57,0-5.5,0-11,0-16.51,0-20.6,10.95-31.39,31.77-31.39q90.35,0,180.68,0H639V445.59H362ZM111.66,194.2H305.38V84H111.66ZM319.79,445.48H69.61L194.71,616Zm.26,388.59L194.68,663.13c-42.07,57.38-83.3,113.63-125.3,170.94ZM177.46,639.58,56.07,474.12v331ZM333,804.69V474.47L212,639.6C252.27,694.57,292.12,748.92,333,804.69ZM778.24,28.39H84.15V55.21H778.24ZM667,389.9H28.54v26.8H667Zm27.62,444v-138H584.47v138Zm56.23-361.55v-8c0-25.18.24-50.35-.24-75.52a20.22,20.22,0,0,0-5.17-12.63c-28.57-29.13-57.52-57.88-86.39-86.71-1.76-1.76-3.74-3.3-4.59-4l-76,76.09h8c26.63,0,53.25-.1,79.87.05,17.27.1,28.73,11.69,29,28.92.09,6.36,0,12.73,0,19.09,0,22.77-5.47,30.07-27.15,36.36v26.39ZM556.58,138.42H750.44V83.9H556.58ZM334.15,360.92H527.71V306.33H334.15Zm499.7,140.2H445.65v26.82h388.2ZM357.36,83.92c24.67,24.69,49.87,49.93,74.17,74.27L505.7,83.92Zm-23.2,171.4,74.08-74-74.08-74Zm193.51,0V106.12L453,180.81ZM728.1,167.58H578.89l74.61,74.63Zm-97.56,97.17-73.89-73.83V338.78Zm45.05-1,74.61,74.95V189.12ZM506.15,277.7l-74.53-74.6-75.3,74.6ZM134,222.88,208,297c24.71-24.43,50-49.44,75-74.1Zm-22,22.31V361.5c10.94,0,21.34.1,31.73-.09a8.57,8.57,0,0,0,5.39-2c13.23-12.86,26.3-25.88,38.86-38.31Zm193.75.45q-37.59,37.53-75.8,75.68c11.9,11.92,24.54,24.62,37.25,37.25,1.17,1.17,2.76,2.68,4.18,2.71,11.42.22,22.85.12,34.37.12Zm69.78,588h68.84V739.81ZM187.61,360.72h39l-18.54-19.56Z"/></g></g></svg>