<svg xmlns="http://www.w3.org/2000/svg" viewBox="0 0 871.14 871.22"><defs><style>.cls-1{fill:#fff;}</style></defs><g id="Layer_2" data-name="Layer 2"><g id="Layer_1-2" data-name="Layer 1"><path class="cls-1" d="M458.84,0c4.54.5,9.08,1.09,13.63,1.49,88.09,7.69,166.91,38.93,235.69,94.4,77,62.12,127.35,141.62,150.93,237.78A424,424,0,0,1,869.5,471.8c-8.1,94.5-43.09,177.87-105.27,249.34C701.06,793.74,622.06,840.39,528,861.2a426.56,426.56,0,0,1-141.6,7.14c-84.87-9.74-160.71-41.49-226.69-95.73q-110-90.37-146.13-228.43A418.13,418.13,0,0,1,.69,461.86a18.26,18.26,0,0,0-.69-3v-46.7a23,23,0,0,0,.72-3.43,411.65,411.65,0,0,1,11.17-75.15c23.71-96.12,74-175.61,151-237.71C231.63,40.4,310.44,9.17,398.51,1.49c4.55-.4,9.09-1,13.63-1.49ZM435.29,853.77c228.83.13,415.06-184.4,418.45-411.73,3.48-233.2-183.69-421.56-411.91-424.82C208.72,13.9,20.38,201.08,17.21,429.35,14,663.94,204,853.84,435.29,853.77Z"/><path class="cls-1" d="M194.39,628.72H327.62V317.32h25.06V628.57H519.31V543.92c4.42,3.42,8.09,6.62,12.11,9.3,5.67,3.77,11.48,7.36,17.45,10.62,2.73,1.48,3.92,2.93,3.88,6.2-.19,17.75-.09,35.5-.09,53.25v5.21h44.53V550.83c-35.88-5.43-63.83-23.22-82.08-55-13.3-23.17-17-48.26-11.66-74.35,11-53.61,59.67-90.79,113.75-87A108.62,108.62,0,0,1,718.48,434c4.89,61.55-40,109.94-95.61,116.8v78.1H740.34v33H130.75V629h30v-5.58q0-143.39-.08-286.76c0-3.48.95-5.23,4.16-6.77q78.69-37.8,157.3-75.78c2.8-1.35,3.65-2.9,3.64-5.89q-.13-52.63-.06-105.28v-5.12H552.44c.07,1.28.21,2.58.21,3.88q0,87.47-.07,174.92c0,1.59-.8,3.87-2,4.65-10.24,6.69-20.66,13.1-31.1,19.64V170.8H358.88v5c0,31.13,0,62.26.07,93.4,0,3-.74,4.56-3.53,5.9q-79.05,38-158,76.15c-2.52,1.21-3.26,2.53-3.26,5.21q.1,134.16.07,268.32C194.2,626,194.31,627.16,194.39,628.72ZM622.58,520.06c32,.54,66-38.67,66.36-76,.39-43-34.87-78.86-77-79.72-43.46-.89-81.87,35-80.64,80.86,1.2,44.88,38.2,72.3,66.13,74.91v-56.2h25.11Z"/><path class="cls-1" d="M213.4,419.07V402.76h93.52v16.31Z"/><path class="cls-1" d="M213.39,540.88v-16.1H307v16.1Z"/><path class="cls-1" d="M213.4,480V463.85H307V480Z"/><path class="cls-1" d="M404,276.28h16.11V323H404Z"/><path class="cls-1" d="M466.87,323h-16V276.42h16Z"/><path class="cls-1" d="M420.11,416.7H404.16V370.18h15.95Z"/><path class="cls-1" d="M450.87,370.19h16.07v46.47H450.87Z"/><path class="cls-1" d="M420,510.44h-15.9V464H420Z"/><path class="cls-1" d="M467,463.92v46.45h-16.1V463.92Z"/></g></g></svg>