<svg xmlns="http://www.w3.org/2000/svg" viewBox="0 0 773.43 657.36"><defs><style>.cls-1{fill:#fff;}</style></defs><g id="Layer_2" data-name="Layer 2"><g id="Layer_1-2" data-name="Layer 1"><path class="cls-1" d="M455.59,500.21v78.62c7.05,0,13.78-.1,20.5,0,24.91.46,43.86,18.68,45.12,43.56.38,7.34.24,14.71.15,22.06-.12,10.11-3,12.84-13.37,12.85q-90.3,0-180.59,0c-20.71,0-41.41,0-62.11,0-10.33,0-13.11-2.75-13.24-13-.09-7.08-.2-14.17.11-21.24,1.08-25.38,20-43.77,45.3-44.24,6.5-.12,13,0,20.12,0V500.21H308.1q-128.7,0-257.41,0C18.45,500.2,0,481.85,0,449.52Q0,250.12,0,50.73C0,18.17,18.18,0,50.51,0H723.06C755,0,773.37,18.13,773.39,50.05q.09,199.81,0,399.61c0,32.34-18.38,50.53-50.79,50.54q-128.29,0-256.6,0Zm-19.84,0c-17.71,0-34.56,0-51.41,0-11.56,0-16.81-3.08-16.64-9.74s5.36-9.39,17.07-9.39q169.19,0,338.36,0c21.64,0,31.34-9.8,31.35-31.49q0-199.42,0-398.84c0-22-9.84-32-31.9-32q-335.9,0-671.8,0c-22,0-31.83,10-31.83,32V448c0,23.93,9.11,33.08,33,33.08q134.85,0,269.7,0c13,0,15.66,2.69,15.67,15.89q0,36.38,0,72.74v8.61h98.42Zm66.9,137.9c0-2.91,0-4.8,0-6.69.19-24.28-9-33.51-33.43-33.52H412c-37.3,0-74.61.09-111.92,0-11.25,0-21.23,3.25-25.63,13.83-3.27,7.87-3.39,17.05-5.05,26.43Z"/><path class="cls-1" d="M386.7,413.88H71.26c-14.49,0-16.28-1.83-16.28-16.57q0-167.52,0-335c0-13,2.28-15.38,15.07-15.38q316.67,0,633.33,0c12.77,0,15.06,2.39,15.07,15.4q0,167.94,0,335.87c0,13.55-2.16,15.74-15.51,15.74ZM699,66.13H74.79V394.66H699Z"/><path class="cls-1" d="M324.63,348.49c0-17.07-.29-33.91.08-50.74.42-19.37,14.71-34.51,33.94-36.7,18.19-2.07,35.72,9.38,40.19,27.4,1.8,7.25,1.39,15.11,1.53,22.71.22,12.21.06,24.44.06,37.37h40.41v-8.65q0-42.08,0-84.15c0-2.44-.84-5.61.35-7.19,2.51-3.31,6.12-8,9.26-8s6.82,4.68,9.16,8.07c1.3,1.86.39,5.29.39,8,0,30.47,0,60.94,0,92.6h9.29q29.82,0,59.63,0c6.43,0,11.72,1.83,11.66,9.35C540.53,366,535.51,368,529,368q-122.54-.06-245.08-.07c-8,0-11.5-3.41-11.52-11.4-.1-35.13,0-70.26,0-105.38,0-6.31,2.51-10.93,9.2-11.11,7.35-.21,9.78,4.92,9.8,11.39q.09,43.71.05,87.41v9.64Zm19.43,0H381.6c0-17.28.37-33.86-.13-50.41a18.85,18.85,0,0,0-18.31-18.39c-9.25-.32-18.47,6.31-18.87,15.6C343.52,312.9,344.06,330.53,344.06,348.52Z"/><path class="cls-1" d="M569,203.09c-3.1-3.4-4.82-5.4-6.66-7.28-25.7-26.3-51.53-52.47-77-79-4.56-4.73-9.17-6.64-15.69-6.44-15,.44-30,.08-44.94.16-6.73,0-12.12-1.83-12.76-9.47-.49-5.79,4.59-9.42,12.62-9.44,18.25-.06,36.5-.32,54.74.19,4.16.12,9.35,1.92,12.2,4.79q53.25,53.65,105.71,108.08c2.49,2.58,4.18,8.46,2.93,11.4s-6.63,5.82-10.23,5.86q-59.25.61-118.49,0c-4.18,0-9.12-3.36-12.34-6.53q-47.4-46.8-94.27-94.11c-2.11-2.11-3.81-4.64-7.38-9-2.76,4-4.29,7-6.53,9.26Q305.57,168.06,260,214.4c-1.91,1.94-3.68,5-5.93,5.4-3.79.75-9.31,1.31-11.48-.78s-1.66-7.56-1.53-11.52c0-1.47,2.25-2.92,3.58-4.28Q296.1,150.63,347.54,98.07c8.65-8.84,11.82-8.79,20.83.21,33.15,33.12,66.17,66.36,99.55,99.23a20.07,20.07,0,0,0,12.54,5.34C509.31,203.31,538.17,203.09,569,203.09Z"/><path class="cls-1" d="M166.48,349.39c4.43,0,8.75-1.16,11.82.31,3.57,1.7,7.83,5.31,8.58,8.79,1.18,5.41-3,9.1-8.76,9.36-7.06.33-14.15.18-21.23.09-6.22-.09-9.36-3.7-10.12-9.59a45.28,45.28,0,0,1-.11-5.71q0-122.5,0-245c0-13.7,2.32-16,16.15-16,4.9,0,9.8-.12,14.7,0,5.67.18,9.44,3.1,9.75,8.86.33,6.32-3.64,9.38-9.59,9.86-3.5.28-7,0-11.2,0Z"/><path class="cls-1" d="M609.79,315.88c6.42,5.81,11.39,10,16,14.59,4.36,4.3,6,9.4,1.15,14.32s-10,3.45-14.33-.89c-4.61-4.59-8.86-9.55-15-16.29-5.25,6.17-9.26,11.68-14.07,16.35-7.08,6.89-14.53,4.76-17-4.84q-7.41-28.35-14.09-56.9c-1.84-7.82,3.93-13.73,11.69-11.92q28.95,6.75,57.69,14.3c9,2.38,10.91,9.93,4.36,16.76C621.47,306.23,616.05,310.38,609.79,315.88Zm-8.82-17-26.69-6.59c2.44,9.69,4.51,17.92,6.73,26.77Z"/></g></g></svg>