<?xml version="1.0" encoding="utf-8"?>
<!-- Generator: Adobe Illustrator 24.3.0, SVG Export Plug-In . SVG Version: 6.00 Build 0)  -->
<svg version="1.1" id="Layer_1" xmlns="http://www.w3.org/2000/svg" xmlns:xlink="http://www.w3.org/1999/xlink" x="0px" y="0px"
	 viewBox="0 0 126 126" style="enable-background:new 0 0 126 126;" xml:space="preserve">
<style type="text/css">
	.st0{fill:#FFFFFF;}
</style>
<path class="st0" d="M69.51,123.81c9.52-1,19.24-4.41,27.31-9.58c3.46-2.22,8.98-6.54,8.98-7.01c0-0.16-1.6-0.28-3.56-0.28h-3.56
	l-2.6,1.85c-6.89,4.82-14.01,7.79-23.18,9.61c-3.98,0.78-13.85,0.94-18.4,0.31c-12.73-1.82-23.6-7.17-32.7-16.12
	c-4.84-4.76-7.6-8.48-10.58-14.24c-8.37-16.21-8.37-35.02,0.03-51.04c5.07-9.7,13.98-18.62,24.01-24
	c11.41-6.13,25.65-8.17,38.95-5.54c17.02,3.35,32.28,14.8,39.91,29.95c1.6,3.19,1.22,3.04,4.71,1.97l1.7-0.5l-1.64-3.13
	c-2.21-4.29-3.53-6.38-6.19-9.86c-9.97-13.08-25.2-21.78-41.84-23.94c-4.04-0.53-11.93-0.59-15.74-0.13
	C39.6,4.01,25.56,11.27,15.49,22.6C5.2,34.21,0.01,47.83,0.01,63.07c0.03,16.84,6.73,32.2,19.11,43.88
	c5.26,4.98,10.16,8.29,16.57,11.27C46.3,123.12,57.91,125.06,69.51,123.81z M75.41,102.03c0.54-0.47,0.58-1.6,0.58-23.25V56.03
	l-1.28,0.31l-1.28,0.34v22.38c0,20.37,0.03,22.41,0.55,22.94C74.61,102.69,74.67,102.69,75.41,102.03z M37.2,62.97V23.7h-2.56h-2.56
	v39.28v39.28h2.56h2.56V62.97z M47.14,62.97V23.7h-2.56h-2.56v39.28v39.28h2.56h2.56V62.97z M57.39,62.97V23.7h-2.56h-2.56v39.28
	v39.28h2.56h2.56V62.97z M126,99.59v-2.35h-5.61c-3.08,0-5.61-0.09-5.61-0.19c0-0.09,0.64-1.19,1.41-2.41
	c2.24-3.63,5.64-10.7,5.64-11.77c0-0.25-2.89-0.34-8.98-0.34h-8.98v2.35v2.35h5.29c2.92,0,5.29,0.13,5.29,0.25
	c0,0.44-3.24,5.76-4.78,7.89c-0.8,1.13-2.37,3.07-3.49,4.32l-2.02,2.25h10.93H126V99.59z M70.73,57.59c-0.06-0.06-0.61,0-1.19,0.16
	L68.45,58l-0.1,19.15L68.29,96.3l1.19,1.28l1.22,1.31l0.1-20.59C70.83,66.98,70.79,57.65,70.73,57.59z M79.96,96.68l1.15-1.38V75.18
	c0-11.08-0.1-20.22-0.22-20.28c-0.16-0.06-0.74,0-1.28,0.16l-1.06,0.28v21.47c0,11.8,0.06,21.41,0.13,21.34
	C78.75,98.09,79.32,97.4,79.96,96.68z M66.05,76.24V58.69l-1.03,0.22c-0.58,0.13-1.15,0.28-1.28,0.38
	c-0.16,0.06-0.26,7.42-0.26,16.31v16.15l1.03,1.03c0.58,0.56,1.15,1.03,1.28,1.03S66.05,85.91,66.05,76.24z M84.9,90.98l1.03-1.22
	V71.58V53.4l-0.71,0.19c-0.42,0.13-0.99,0.28-1.28,0.34c-0.55,0.16-0.58,1.35-0.58,19.25c0,10.48,0.1,19.06,0.26,19.06
	C83.75,92.24,84.32,91.67,84.9,90.98z M60.82,60.13c-0.06-0.06-0.64,0.03-1.28,0.22l-1.19,0.31v13.05v13.02l1.22,1.22l1.19,1.19
	l0.1-14.46C60.89,66.73,60.89,60.16,60.82,60.13z M91.06,68.04V52.11l-1.03,0.22c-0.58,0.13-1.15,0.28-1.28,0.38
	c-0.16,0.06-0.26,7.73-0.26,17.06V86.7l1.28-1.38l1.25-1.38L91.06,68.04z M95.03,79.15l1.15-1.38V64.35
	c0-7.45-0.13-13.43-0.29-13.43c-0.16,0-0.74,0.09-1.28,0.19l-0.99,0.22v14.71c0,8.11,0.06,14.65,0.13,14.58S94.39,79.87,95.03,79.15
	z M50.98,70.95c0-8.92,0.1-8.45-1.83-7.95c-0.74,0.19-0.74,0.22-0.74,7.1v6.92l1.03,1.03c0.58,0.56,1.15,1.03,1.28,1.03
	S50.98,75.43,50.98,70.95z M124.14,74.71c1.03-4.98,1.38-11.3,0.96-16.43c-0.22-2.53-0.51-4.82-0.64-5.07
	c-0.19-0.34-0.77,0.13-2.24,1.91l-1.99,2.32v4.82c0,5.57-0.83,12.3-1.8,14.77c-0.19,0.47,0.06,0.53,2.47,0.44l2.69-0.09
	L124.14,74.71z M99.87,73.55l1.09-1.19l0.03-11.33c0-12.33,0.1-11.74-1.73-11.05l-0.83,0.31V62.5c0,6.7,0.06,12.21,0.16,12.21
	S99.23,74.18,99.87,73.55z M40.6,65.41c-0.1-0.09-0.55-0.03-1.06,0.13c-1.31,0.44-1.35,1.5-0.03,2.82l1.06,1.06l0.1-1.94
	C40.72,66.42,40.69,65.48,40.6,65.41z M104.97,67.57l1.15-1.38v-9.08c0-8.17-0.06-9.08-0.51-8.89c-0.29,0.09-0.87,0.28-1.28,0.38
	l-0.77,0.19V59c0,5.6,0.06,10.11,0.13,10.05S104.33,68.29,104.97,67.57z M110.1,61.63l1.15-1.38v-6.51c0-3.6-0.13-6.6-0.29-6.7
	s-0.74-0.03-1.28,0.16l-0.99,0.34v7.86c0,4.32,0.06,7.76,0.13,7.7C108.88,63.04,109.46,62.35,110.1,61.63z M115.04,55.87l1.03-1.25
	v-4.51c0-2.47-0.13-4.51-0.29-4.51c-0.13,0-0.71,0.16-1.28,0.34l-0.99,0.34v5.45c0,3,0.1,5.45,0.26,5.41
	C113.88,57.15,114.46,56.59,115.04,55.87z M120.04,50.05c1.09-1.28,1.15-1.5,1.15-3.54c0-2.32-0.13-2.44-1.73-1.85
	c-0.83,0.28-0.83,0.34-0.83,3.63c0,1.85,0.06,3.29,0.13,3.22S119.4,50.77,120.04,50.05z M125.62,43.23
	c-0.1-0.09-0.55-0.06-1.03,0.06c-0.71,0.16-0.83,0.38-0.83,1.25v1.1l0.99-1.13C125.33,43.88,125.68,43.32,125.62,43.23z"/>
</svg>
